HIERARCHY
ROOT hip
{
  OFFSET 0 0 0
  CHANNELS 6 Xposition Yposition Zposition Zrotation Yrotation Xrotation
  JOINT abdomen
  {
    OFFSET 0 20.6881 -0.73152
    CHANNELS 3 Zrotation Xrotation Yrotation
    JOINT chest
    {
      OFFSET 0 11.7043 -0.48768
      CHANNELS 3 Zrotation Xrotation Yrotation
      JOINT neck
      {
        OFFSET 0 22.1894 -2.19456
        CHANNELS 3 Zrotation Xrotation Yrotation
        JOINT head
        {
          OFFSET -0.24384 7.07133 1.2192
          CHANNELS 3 Zrotation Xrotation Yrotation
          JOINT leftEye
          {
            OFFSET 4.14528 8.04674 8.04672
            CHANNELS 3 Zrotation Xrotation Yrotation
            End Site
            {
              OFFSET 1 0 0
            }
          }
          JOINT rightEye
          {
            OFFSET -3.6576 8.04674 8.04672
            CHANNELS 3 Zrotation Xrotation Yrotation
            End Site
            {
              OFFSET 1 0 0
            }
          }
        }
      }
      JOINT rCollar
      {
        OFFSET -2.68224 19.2634 -4.8768
        CHANNELS 3 Zrotation Xrotation Yrotation
        JOINT rShldr
        {
          OFFSET -8.77824 -1.95073 1.46304
          CHANNELS 3 Zrotation Xrotation Yrotation
          JOINT rForeArm
          {
            OFFSET -28.1742 -1.7115 0.48768
            CHANNELS 3 Zrotation Xrotation Yrotation
            JOINT rHand
            {
              OFFSET -22.5879 0.773209 7.07136
              CHANNELS 3 Zrotation Xrotation Yrotation
              JOINT rThumb1
              {
                OFFSET -1.2192 -0.487915 3.41376
                CHANNELS 3 Zrotation Xrotation Yrotation
                JOINT rThumb2
                {
                  OFFSET -3.37035 -0.52449 3.41376
                  CHANNELS 3 Zrotation Xrotation Yrotation
                  End Site
                  {
                    OFFSET -1.78271 -1.18214 1.43049
                  }
                }
              }
              JOINT rIndex1
              {
                OFFSET -7.75947 0.938293 5.60832
                CHANNELS 3 Zrotation Xrotation Yrotation
                JOINT rIndex2
                {
                  OFFSET -2.54057 -0.884171 1.56538
                  CHANNELS 3 Zrotation Xrotation Yrotation
                  End Site
                  {
                    OFFSET -1.62519 -0.234802 1.16502
                  }
                }
              }
              JOINT rMid1
              {
                OFFSET -8.24714 1.18213 3.41376
                CHANNELS 3 Zrotation Xrotation Yrotation
                JOINT rMid2
                {
                  OFFSET -3.10165 -0.590103 1.0647
                  CHANNELS 3 Zrotation Xrotation Yrotation
                  End Site
                  {
                    OFFSET -2.48547 -0.328903 0.83742
                  }
                }
              }
              JOINT rRing1
              {
                OFFSET -8.82822 0.546677 1.51678
                CHANNELS 3 Zrotation Xrotation Yrotation
                JOINT rRing2
                {
                  OFFSET -2.60934 -0.819778 -0.0198488
                  CHANNELS 3 Zrotation Xrotation Yrotation
                  End Site
                  {
                    OFFSET -2.33842 -0.294052 0.168128
                  }
                }
              }
              JOINT rPinky1
              {
                OFFSET -8.27202 -0.0477905 -0.4584
                CHANNELS 3 Zrotation Xrotation Yrotation
                JOINT rPinky2
                {
                  OFFSET -1.82734 -0.647385 -0.700984
                  CHANNELS 3 Zrotation Xrotation Yrotation
                  End Site
                  {
                    OFFSET -1.69225 -0.51767 -0.607171
                  }
                }
              }
            }
          }
        }
      }
      JOINT lCollar
      {
        OFFSET 2.68224 19.2634 -4.8768
        CHANNELS 3 Zrotation Xrotation Yrotation
        JOINT lShldr
        {
          OFFSET 8.77824 -1.95073 1.46304
          CHANNELS 3 Zrotation Xrotation Yrotation
          JOINT lForeArm
          {
            OFFSET 28.1742 -1.7115 0.48768
            CHANNELS 3 Zrotation Xrotation Yrotation
            JOINT lHand
            {
              OFFSET 22.5879 0.773209 7.07136
              CHANNELS 3 Zrotation Xrotation Yrotation
              JOINT lThumb1
              {
                OFFSET 1.2192 -0.487915 3.41376
                CHANNELS 3 Zrotation Xrotation Yrotation
                JOINT lThumb2
                {
                  OFFSET 3.37035 -0.52449 3.41376
                  CHANNELS 3 Zrotation Xrotation Yrotation
                  End Site
                  {
                    OFFSET 1.78271 -1.18214 1.43049
                  }
                }
              }
              JOINT lIndex1
              {
                OFFSET 7.75947 0.938293 5.60832
                CHANNELS 3 Zrotation Xrotation Yrotation
                JOINT lIndex2
                {
                  OFFSET 2.54057 -0.884171 1.56538
                  CHANNELS 3 Zrotation Xrotation Yrotation
                  End Site
                  {
                    OFFSET 1.62519 -0.234802 1.16502
                  }
                }
              }
              JOINT lMid1
              {
                OFFSET 8.24714 1.18213 3.41376
                CHANNELS 3 Zrotation Xrotation Yrotation
                JOINT lMid2
                {
                  OFFSET 3.10165 -0.590103 1.0647
                  CHANNELS 3 Zrotation Xrotation Yrotation
                  End Site
                  {
                    OFFSET 2.48547 -0.328903 0.83742
                  }
                }
              }
              JOINT lRing1
              {
                OFFSET 8.82822 0.546677 1.51678
                CHANNELS 3 Zrotation Xrotation Yrotation
                JOINT lRing2
                {
                  OFFSET 2.60934 -0.819778 -0.0198488
                  CHANNELS 3 Zrotation Xrotation Yrotation
                  End Site
                  {
                    OFFSET 2.33842 -0.294052 0.168128
                  }
                }
              }
              JOINT lPinky1
              {
                OFFSET 8.27202 -0.0477905 -0.4584
                CHANNELS 3 Zrotation Xrotation Yrotation
                JOINT lPinky2
                {
                  OFFSET 1.82734 -0.647385 -0.700984
                  CHANNELS 3 Zrotation Xrotation Yrotation
                  End Site
                  {
                    OFFSET 1.69225 -0.51767 -0.607171
                  }
                }
              }
            }
          }
        }
      }
    }
  }
  JOINT rButtock
  {
    OFFSET -8.77824 4.35084 1.2192
    CHANNELS 3 Zrotation Xrotation Yrotation
    JOINT rThigh
    {
      OFFSET 0 -1.70687 -2.19456
      CHANNELS 3 Zrotation Xrotation Yrotation
      JOINT rShin
      {
        OFFSET 0 -36.8199 0.73152
        CHANNELS 3 Zrotation Xrotation Yrotation
        JOINT rFoot
        {
          OFFSET 0.73152 -45.1104 -5.12064
          CHANNELS 3 Zrotation Xrotation Yrotation
          End Site
          {
            OFFSET -1.1221 -3.69964 12.103
          }
        }
      }
    }
  }
  JOINT lButtock
  {
    OFFSET 8.77824 4.35084 1.2192
    CHANNELS 3 Zrotation Xrotation Yrotation
    JOINT lThigh
    {
      OFFSET 0 -1.70687 -2.19456
      CHANNELS 3 Zrotation Xrotation Yrotation
      JOINT lShin
      {
        OFFSET 0 -36.8199 0.73152
        CHANNELS 3 Zrotation Xrotation Yrotation
        JOINT lFoot
        {
          OFFSET -0.73152 -45.1104 -5.12064
          CHANNELS 3 Zrotation Xrotation Yrotation
          End Site
          {
            OFFSET 1.1221 -3.69964 12.103
          }
        }
      }
    }
  }
}
MOTION
Frames:	4
Frame Time:	0.03333
25.2746 68.5181 -127.935 -149.21299743652344 83.13160705566406 -151.7569580078125 -1.6586498022079468 14.417301177978516 -3.6596601009368896 7.019790172576904 -10.14690113067627 -0.4003329575061798 -11.030099868774414 18.656999588012695 -14.592101097106934 13.436699867248535 -25.14929962158203 -25.9789981842041 -0.0 0.0 -0.0 -0.0 0.0 -0.0 3.412759983466296e-13 6.214169803731018e-12 1.5139400692289195e-13 57.899200439453125 3.358860731124878 31.36749839782715 -28.340599060058594 -37.786094665527344 80.0667953491211 -2.4100301265716553 39.63580322265625 6.684149742126465 -9.680769519349042e-10 -3.6232200573138584e-10 5.356179944016048e-10 -1.6564599691903936e-09 -6.093230364712099e-10 9.535440215202584e-10 -9.680729551320155e-10 -3.62329000136441e-10 5.356060039929389e-10 7.730909824371338 5.474879741668701 0.4173140823841095 -9.680769519349042e-10 -3.6232500333355233e-10 5.356109999965497e-10 2.9055399894714355 0.9651829600334167 0.10290199518203735 -9.680719559312934e-10 -3.623229771765324e-10 5.356060039929389e-10 10.27859878540039 0.73180091381073 0.025912316516041756 -9.680839463399593e-10 -3.6231598277147725e-10 5.356109999965497e-10 2.221669912338257 -0.733487069606781 -0.208919957280159 3.4112898053204055e-13 6.214169803731018e-12 1.5108601219074314e-13 -71.33909606933594 77.76502227783203 -4.034011363983154 27.150001525878906 -43.60170364379883 -90.65669250488281 41.599796295166016 -79.46781158447266 49.11859893798828 3.461239905799829e-10 1.7405998517516785e-11 -3.451889885042192e-10 6.086049997300336e-10 -3.1216300377945316e-11 -5.621549892254052e-10 3.461149700179078e-10 1.740290030138869e-11 -3.451760266504067e-10 -7.730909824371338 5.474879741668701 -0.4173140823841095 3.461209929778164e-10 1.7405700145078917e-11 -3.451859909020527e-10 -2.9055399894714355 0.9651829600334167 -0.10290199518203735 3.4611896682079646e-10 1.740519880999436e-11 -3.451859909020527e-10 -10.27859878540039 0.73180091381073 -0.025912316516041756 3.461290143391693e-10 1.7406999452962424e-11 -3.4519498370855217e-10 -2.221669912338257 -0.733487069606781 0.208919957280159 -2.0321699480147914e-16 0.0 -3.8825099822884138e-19 -41.4109992980957 -44.267398834228516 -36.906497955322266 -0.6122850179672241 48.74040222167969 0.7077720165252686 -1.8436797857284546 19.387704849243164 5.760079383850098 2.0321699480147914e-16 0.0 3.8825099822884138e-19 24.939199447631836 -35.273895263671875 30.06960105895996 3.5982792377471924 77.90631103515625 -4.826500415802002 12.698598861694336 -20.60580062866211 22.472400665283203
25.5541 68.0005 -127.806 -146.99000549316406 83.42472076416016 -149.2620391845703 -1.1572198867797852 14.296700477600098 -3.4231600761413574 6.7397894859313965 -10.23859977722168 -0.33077001571655273 -10.766599655151367 18.703201293945312 -14.788300514221191 13.170398712158203 -24.992700576782227 -26.417695999145508 -0.0 0.0 -0.0 -0.0 0.0 -0.0 4.6718200461632817e-14 1.7216899780847505e-11 -2.4415200221804267e-13 57.63169860839844 1.356729507446289 31.764297485351562 -28.440902709960938 -35.99320602416992 76.94409942626953 -2.6333701610565186 41.051002502441406 7.029080867767334 -1.1512499842325497e-09 -6.413859998666283e-10 7.838599769272037e-10 -1.9655999050627315e-09 -1.1101199959284713e-09 1.385939918385759e-09 -1.1512499842325497e-09 -6.413869435561992e-10 7.838529825221485e-10 7.730909824371338 5.474879741668701 0.4173140823841095 -1.1512499842325497e-09 -6.413840014651839e-10 7.838539817228707e-10 2.9055399894714355 0.9651829600334167 0.10290199518203735 -1.151239992225328e-09 -6.413850006659061e-10 7.838469873178155e-10 10.27859878540039 0.73180091381073 0.025912316516041756 -1.1512499842325497e-09 -6.413810038630174e-10 7.83850928609553e-10 2.221669912338257 -0.733487069606781 -0.208919957280159 4.676169729754022e-14 1.7216998660085636e-11 -2.4449900112334666e-13 -75.16130065917969 77.53089141845703 -0.3181622624397278 27.215599060058594 -43.411399841308594 -90.2844009399414 36.674198150634766 -78.5831069946289 44.10179901123047 1.1324599036299787e-09 -1.5122698648895039e-09 7.708799570904645e-11 1.932289883654903e-09 -2.6530198038443586e-09 1.9428700315238245e-10 1.132449911622757e-09 -1.512279967919028e-09 7.709809873857054e-11 -7.730909824371338 5.474879741668701 -0.4173140823841095 1.132449911622757e-09 -1.5122698648895039e-09 7.708640670234246e-11 -2.9055399894714355 0.9651829600334167 -0.10290199518203735 1.132449911622757e-09 -1.5122698648895039e-09 7.708680221929498e-11 -10.27859878540039 0.73180091381073 -0.025912316516041756 1.1324599036299787e-09 -1.5122698648895039e-09 7.707959964742273e-11 -2.221669912338257 -0.733487069606781 0.208919957280159 -2.0321699480147914e-16 0.0 -3.8825099822884138e-19 -42.574501037597656 -44.89630126953125 -38.998600006103516 -0.6529549956321716 50.091400146484375 0.7822511196136475 -2.05295991897583 17.895999908447266 7.611199378967285 2.0321699480147914e-16 0.0 3.8825099822884138e-19 25.929500579833984 -35.62999725341797 30.91240119934082 4.041519641876221 79.00190734863281 -5.295819282531738 13.161900520324707 -21.023799896240234 22.931297302246094
25.8299 67.469 -127.633 -144.28199768066406 83.6042251586914 -146.2629852294922 -1.0622501373291016 14.217900276184082 -3.1989102363586426 6.552850723266602 -10.306100845336914 -0.27527597546577454 -10.501599311828613 18.86549949645996 -15.004298210144043 13.002399444580078 -25.086700439453125 -26.873502731323242 -0.0 0.0 -0.0 -0.0 0.0 -0.0 -8.569140270411543e-14 1.5712700238146304e-11 -3.1595001137932344e-13 57.34669876098633 -0.29444989562034607 32.04199981689453 -28.401399612426758 -34.62279510498047 74.78559875488281 -2.7048699855804443 41.47159957885742 7.135809421539307 -8.545599783360558e-10 -4.649380047627716e-10 4.444729861940999e-10 -1.4614700560855454e-09 -8.00605970407986e-10 7.91652965403955e-10 -8.545569807338893e-10 -4.6493600636132726e-10 4.4446502034389823e-10 7.730909824371338 5.474879741668701 0.4173140823841095 -8.545599783360558e-10 -4.649350349161807e-10 4.444679901904891e-10 2.9055399894714355 0.9651829600334167 0.10290199518203735 -8.54554038642874e-10 -4.6493600636132726e-10 4.4446099578543397e-10 10.27859878540039 0.73180091381073 0.025912316516041756 -8.5456602905154e-10 -4.6493298100358516e-10 4.444629664313027e-10 2.221669912338257 -0.733487069606781 -0.208919957280159 -8.561619973092641e-14 1.5712700238146304e-11 -3.1627299520650687e-13 -76.94149780273438 77.39420318603516 1.3969295024871826 27.257600784301758 -43.284305572509766 -90.03939819335938 35.699703216552734 -78.37859344482422 43.10719680786133 -1.60947005722889e-10 -6.151829601286352e-10 6.888459802567581e-10 -3.178080021370988e-10 -9.70557967328034e-10 1.1550199685572693e-09 -1.6094998944726768e-10 -6.151839038182061e-10 6.888569714647019e-10 -7.730909824371338 5.474879741668701 -0.4173140823841095 -1.6094799104582336e-10 -6.151829601286352e-10 6.888419834538695e-10 -2.9055399894714355 0.9651829600334167 -0.10290199518203735 -1.6095298704943417e-10 -6.151839038182061e-10 6.888419834538695e-10 -10.27859878540039 0.73180091381073 -0.025912316516041756 -1.6093999744004606e-10 -6.151809617271908e-10 6.888359882495365e-10 -2.221669912338257 -0.733487069606781 0.208919957280159 -2.0321699480147914e-16 0.0 -3.8825099822884138e-19 -44.07870101928711 -45.3473014831543 -40.86389923095703 -0.6976900100708008 51.384803771972656 0.8488748669624329 -2.117489814758301 17.037302017211914 8.641279220581055 2.0321699480147914e-16 0.0 3.8825099822884138e-19 26.608699798583984 -35.90310287475586 31.626399993896484 4.509179592132568 79.97280883789062 -5.79632043838501 13.476499557495117 -21.635700225830078 23.041400909423828
26.1224 66.961 -127.549 -148.1529998779297 83.88188934326172 -149.9439697265625 -1.3743197917938232 14.18110179901123 -2.9867496490478516 6.4588398933410645 -10.34939956665039 -0.23387090861797333 -10.233500480651855 19.143503189086914 -15.24069881439209 12.92599868774414 -25.42889976501465 -27.349897384643555 -0.0 0.0 -0.0 -0.0 0.0 -0.0 -5.595299749786356e-14 1.7014399871645436e-12 -6.400170107431769e-14 57.02729797363281 -1.605539321899414 32.183197021484375 -28.370101928710938 -33.7943000793457 73.37080383300781 -2.6102099418640137 40.89870071411133 6.992349147796631 -7.801689849706861e-11 1.6702197958018417e-10 -4.825460031554485e-10 -1.4405000803296986e-10 3.1921498777620627e-10 -8.293259967651068e-10 -7.801009838104278e-11 1.670239918594163e-10 -4.825589927648366e-10 7.730909824371338 5.474879741668701 0.4173140823841095 -7.801899404302759e-11 1.6702197958018417e-10 -4.825470023561707e-10 2.9055399894714355 0.9651829600334167 0.10290199518203735 -7.801569806842323e-11 1.670239918594163e-10 -4.825509991590593e-10 10.27859878540039 0.73180091381073 0.025912316516041756 -7.802179735616477e-11 1.6702798866230495e-10 -4.825539967612258e-10 2.221669912338257 -0.733487069606781 -0.208919957280159 -5.600449710105662e-14 1.7014399871645436e-12 -6.423540085259694e-14 -76.79170227050781 77.39191436767578 1.2204105854034424 27.278202056884766 -43.22230911254883 -89.91840362548828 38.27059555053711 -78.89593505859375 45.729591369628906 -3.5340799175997972e-09 2.708679947005521e-09 1.490089940325845e-09 -6.1416898233801476e-09 5.016159931869879e-09 2.3200399379419423e-09 -3.5340901316516238e-09 2.708679947005521e-09 1.490100043355369e-09 -7.730909824371338 5.474879741668701 -0.4173140823841095 -3.5340799175997972e-09 2.708679947005521e-09 1.4900799483186233e-09 -2.9055399894714355 0.9651829600334167 -0.10290199518203735 -3.5340901316516238e-09 2.708679947005521e-09 1.4900799483186233e-09 -10.27859878540039 0.73180091381073 -0.025912316516041756 -3.5340799175997972e-09 2.708679947005521e-09 1.4900698452890992e-09 -2.221669912338257 -0.733487069606781 0.208919957280159 -2.0321699480147914e-16 0.0 -3.8825099822884138e-19 -45.89310073852539 -45.64139938354492 -42.48009490966797 -0.7452698945999146 52.620391845703125 0.9067448377609253 -2.1100399494171143 16.81650161743164 8.869911193847656 2.0321699480147914e-16 0.0 3.8825099822884138e-19 26.9700984954834 -36.09779739379883 32.20750045776367 4.990580081939697 80.81919860839844 -6.31728982925415 13.631699562072754 -22.446002960205078 22.801597595214844
